<?xml version="1.0" encoding="utf-8"?>
<!-- Generator: Adobe Illustrator 26.3.1, SVG Export Plug-In . SVG Version: 6.00 Build 0)  -->
<svg version="1.1" id="Capa_1" xmlns="http://www.w3.org/2000/svg" xmlns:xlink="http://www.w3.org/1999/xlink" x="0px" y="0px"
	 viewBox="0 0 81 136.1" style="enable-background:new 0 0 81 136.1;" xml:space="preserve">
<style type="text/css">
	.st0{opacity:0.1;}
	.st1{opacity:0.25;}
</style>
<g id="a" class="st0">
</g>
<g class="st1">
	<path d="M38,68.3c0-20.1-16.3-36.4-36.4-36.4c-0.5,0-1,0-1.6,0v5c0.5,0,1,0,1.6,0c16.5,0,30,12.8,31.3,28.9h3.3v5h-3.3
		C31.6,86.9,18,99.7,1.6,99.7c-0.5,0-1,0-1.6,0v5c0.5,0,1,0,1.6,0C21.7,104.7,38,88.4,38,68.3z"/>
	<path d="M14.8,68.3c0,0.9-0.1,1.7-0.2,2.5h18.3c0.1-0.8,0.1-1.7,0.1-2.5s0-1.7-0.1-2.5H14.5C14.7,66.6,14.8,67.4,14.8,68.3z"/>
	<path d="M32.8,70.8h3.3v-5h-3.3c0.1,0.8,0.1,1.7,0.1,2.5S32.9,70,32.8,70.8z"/>
	<path d="M1.6,60.1c4.5,0,8.2,3.7,8.2,8.2s-3.7,8.2-8.2,8.2c-0.5,0-1.1-0.1-1.6-0.2v5.1c0.5,0.1,1,0.1,1.6,0.1
		c6.4,0,11.8-4.6,13-10.7H14v-5h0.6c-1.2-6.1-6.5-10.7-13-10.7c-0.5,0-1,0-1.6,0.1v5.1C0.5,60.2,1,60.1,1.6,60.1z"/>
	<path d="M14,70.8h0.6c0.2-0.8,0.2-1.6,0.2-2.5s-0.1-1.7-0.2-2.5H14V70.8z"/>
	<path d="M49.7,70.8h-2.6v-5h2.6C50.9,49.7,64.5,36.9,81,36.9v-5c-20.1,0-36.4,16.3-36.4,36.4s16.3,36.4,36.4,36.4v-5
		C64.5,99.7,50.9,86.9,49.7,70.8z"/>
	<path d="M67.8,68.3c0-0.9,0.1-1.7,0.2-2.5H49.7c-0.1,0.8-0.1,1.7-0.1,2.5s0,1.7,0.1,2.5H68C67.8,70,67.8,69.2,67.8,68.3z"/>
	<path d="M49.7,65.8h-2.6v5h2.6c-0.1-0.8-0.1-1.7-0.1-2.5S49.6,66.6,49.7,65.8z"/>
	<path d="M69.3,70.8H68c1.2,6.1,6.5,10.7,13,10.7v-5c-4.5,0-8.2-3.7-8.2-8.2s3.7-8.2,8.2-8.2v-5c-6.4,0-11.8,4.6-13,10.7h1.3V70.8z"
		/>
	<path d="M68,70.8h1.3v-5H68c-0.2,0.8-0.2,1.6-0.2,2.5S67.8,70,68,70.8z"/>
	<path d="M40.5,36.4c20.1,0,36.4-16.3,36.4-36.4h-1.8v2.5h-3.3c-1.3,16.1-14.8,28.9-31.3,28.9S10.4,18.6,9.2,2.5H6.6V0H4.1
		C4.1,20.1,20.4,36.4,40.5,36.4z"/>
	<path d="M27.3,0H9.1c0,0.8,0,1.7,0.1,2.5h18.3C27.3,1.7,27.3,0.9,27.3,0z"/>
	<path d="M6.6,0v2.5h2.6C9.1,1.7,9.1,0.8,9.1,0H6.6z"/>
	<path d="M53.7,0c0,0.9-0.1,1.7-0.2,2.5h18.3c0.1-0.8,0.1-1.7,0.1-2.5H53.7z"/>
	<path d="M71.7,2.5h3.3V0h-3.2C71.9,0.8,71.8,1.7,71.7,2.5z"/>
	<path d="M52.9,0h-4.2c0,4.5-3.7,8.2-8.2,8.2S32.3,4.5,32.3,0h-3.5v2.5h-1.3c1.2,6.1,6.5,10.7,13,10.7s11.8-4.6,13-10.7h-0.6V0z"/>
	<path d="M28.8,0h-1.5c0,0.9,0.1,1.7,0.2,2.5h1.3V0z"/>
	<path d="M52.9,2.5h0.6c0.2-0.8,0.2-1.6,0.2-2.5h-0.8V2.5z"/>
	<path d="M40.5,99.7c-20.1,0-36.4,16.3-36.4,36.4h2.5v-2.5h2.6c1.3-16.1,14.8-28.9,31.3-28.9s30,12.8,31.3,28.9h3.3v2.5h1.8
		C76.9,116,60.6,99.7,40.5,99.7z"/>
	<path d="M27.3,136.1c0-0.9,0.1-1.7,0.2-2.5H9.2c-0.1,0.8-0.1,1.7-0.1,2.5H27.3z"/>
	<path d="M9.2,133.6H6.6v2.5h2.5C9.1,135.3,9.1,134.4,9.2,133.6z"/>
	<path d="M53.7,136.1h18.2c0-0.8,0-1.7-0.1-2.5H53.4C53.6,134.4,53.7,135.2,53.7,136.1z"/>
	<path d="M75.1,136.1v-2.5h-3.3c0.1,0.8,0.1,1.7,0.1,2.5H75.1z"/>
	<path d="M28.8,136.1h3.5c0-4.5,3.7-8.2,8.2-8.2s8.2,3.7,8.2,8.2h4.2v-2.5h0.6c-1.2-6.1-6.5-10.7-13-10.7s-11.8,4.6-13,10.7h1.3
		V136.1z"/>
	<path d="M28.8,133.6h-1.3c-0.2,0.8-0.2,1.6-0.2,2.5h1.5V133.6z"/>
	<path d="M52.9,136.1h0.8c0-0.9-0.1-1.7-0.2-2.5h-0.6V136.1z"/>
</g>
</svg>
