<?xml version="1.0" encoding="utf-8"?>
<!-- Generator: Adobe Illustrator 26.3.1, SVG Export Plug-In . SVG Version: 6.00 Build 0)  -->
<svg version="1.1" id="Capa_1" xmlns="http://www.w3.org/2000/svg" xmlns:xlink="http://www.w3.org/1999/xlink" x="0px" y="0px"
	 viewBox="0 0 72.8 72.8" style="enable-background:new 0 0 72.8 72.8;" xml:space="preserve">
<g id="a">
</g>
<g id="b_00000022556514254942205250000000135523757228444061_">
	<g id="c_00000025406415193395307360000001924912641410389666_">
		<g>
			<path d="M36.4,72.8C16.3,72.8,0,56.5,0,36.4S16.3,0,36.4,0s36.4,16.3,36.4,36.4S56.5,72.8,36.4,72.8L36.4,72.8z M36.4,5
				C19.1,5,5,19.1,5,36.4s14.1,31.4,31.4,31.4s31.4-14.1,31.4-31.4S53.7,5,36.4,5z"/>
			<rect x="2.5" y="33.9" width="22.2" height="5"/>
			<rect x="48.8" y="33.9" width="22.2" height="5"/>
			<g>
				<path d="M36.4,49.6c-7.3,0-13.2-5.9-13.2-13.2s5.9-13.2,13.2-13.2s13.2,5.9,13.2,13.2S43.7,49.6,36.4,49.6z M36.4,28.2
					c-4.5,0-8.2,3.7-8.2,8.2s3.7,8.2,8.2,8.2s8.2-3.7,8.2-8.2S40.9,28.2,36.4,28.2z"/>
			</g>
			<g>
				<circle cx="36.4" cy="36.4" r="3.8"/>
				<path d="M36.4,42.7c-3.5,0-6.3-2.8-6.3-6.3s2.8-6.3,6.3-6.3s6.3,2.8,6.3,6.3S39.9,42.7,36.4,42.7z"/>
			</g>
		</g>
	</g>
</g>
</svg>
