<?xml version="1.0" encoding="UTF-8"?><svg id="b" xmlns="http://www.w3.org/2000/svg" viewBox="0 0 147.91 126.1"><g id="c"><path d="M53.86,0c-6.46,7.17-9.64,15.45-8.71,25.08,.77,7.97,4.22,14.69,10.25,20,11.29,9.93,27.94,9.79,39.27-.09,10.32-8.99,15.79-28.14,1.93-44.33,.53,.06,.91,.04,1.26,.14,16.66,5.14,30.48,14.27,40.26,28.94,7.7,11.53,10.9,24.29,9.45,38.08-1.32,12.56-6.49,23.5-14.82,32.92-10.57,11.95-23.84,19.5-39.3,23.01-22.08,5.02-43.09,2.13-62.53-9.81-12.49-7.67-21.98-18.15-27.04-32.03C-3.5,61.67-.24,42.82,12.75,25.8,23.15,12.19,37.25,4.14,53.86,0Z"/></g></svg>