<?xml version="1.0" encoding="UTF-8"?><svg xmlns="http://www.w3.org/2000/svg" viewBox="0 0 82.55 83.9"><g id="a"/><g id="b"><g id="c"><g><g><circle cx="34.28" cy="34.28" r="5.71"/><path d="M34.28,42.44c-4.5,0-8.16-3.66-8.16-8.16s3.66-8.16,8.16-8.16,8.16,3.66,8.16,8.16-3.66,8.16-8.16,8.16Zm0-11.43c-1.8,0-3.27,1.47-3.27,3.27s1.47,3.27,3.27,3.27,3.27-1.47,3.27-3.27-1.47-3.27-3.27-3.27Z"/></g><path d="M4.07,46.19c-.33,0-.65-.06-.96-.19-.7-.29-1.23-.88-1.44-1.61-.76-2.63-1.67-6.52-1.67-10.1C0,15.38,15.38,0,34.28,0c10.59,0,18.78,3.56,25.05,10.89,.47,.55,.68,1.27,.57,1.98-.1,.71-.51,1.35-1.12,1.74l-16.36,10.58c-.8,.52-1.84,.54-2.66,.04-1.65-1.01-3.55-1.54-5.5-1.54-5.84,0-10.59,4.75-10.59,10.59,0,.91-.5,1.75-1.3,2.19L5.27,45.88c-.37,.21-.79,.31-1.2,.31ZM34.28,5c-16.15,0-29.28,13.14-29.28,29.28,0,1.6,.24,3.54,.7,5.66l13.07-7.18c.77-7.88,7.43-14.07,15.52-14.07,2.32,0,4.6,.52,6.68,1.5l12.59-8.14c-4.99-4.74-11.33-7.05-19.27-7.05Zm-13.09,29.28h0Z"/><path d="M62.05,83.9c-.87,0-1.69-.46-2.14-1.22l-10.54-17.61c-4.67,2.29-9.84,3.49-15.08,3.49-9.68,0-18.96-4.12-25.45-11.31-.5-.56-.73-1.31-.62-2.05,.11-.74,.55-1.39,1.19-1.78l16.44-9.83c.64-.38,1.42-.46,2.12-.21,1.62,.57,4.77,1.48,6.33,1.48,5.78,0,10.49-4.65,10.59-10.4l-.06-.37c-.16-1.01,.31-2.02,1.19-2.55l16.94-10.13,15.85-9.36c.87-.52,1.97-.45,2.78,.16s1.17,1.66,.9,2.64l-18,67.18c-.26,.97-1.07,1.69-2.07,1.83-.12,.02-.23,.02-.35,.02Zm-11.77-24.65c.85,0,1.68,.43,2.15,1.22l8.74,14.59,14.89-55.56-10.57,6.24-15.63,9.35c-.41,8.23-7.24,14.8-15.57,14.8-2.15,0-5.21-.86-6.86-1.39l-12.7,7.59c5.35,4.79,12.32,7.49,19.56,7.49,5.19,0,10.29-1.38,14.74-3.98,.4-.23,.83-.34,1.26-.34Z"/></g></g></g></svg>