<?xml version="1.0" encoding="UTF-8"?><svg xmlns="http://www.w3.org/2000/svg" viewBox="0 0 86.34 92.6"><g id="a"/><g id="b"><g id="c"><g><path d="M60.47,92.6H25.55c-10.29,0-18.66-8.37-18.66-18.66v-29.95C6.89,24.07,23.09,7.87,43.01,7.87s36.12,16.21,36.12,36.12v29.95c0,10.29-8.37,18.66-18.66,18.66ZM43.01,12.87c-17.16,0-31.12,13.96-31.12,31.12v29.95c0,7.53,6.13,13.66,13.66,13.66H60.47c7.53,0,13.66-6.13,13.66-13.66v-29.95c0-17.16-13.96-31.12-31.12-31.12Z"/><path d="M65.58,43.89c-1.38,0-2.5-1.12-2.5-2.5,0-9.95-9-18.04-20.07-18.04s-20.07,8.09-20.07,18.04c0,1.38-1.12,2.5-2.5,2.5s-2.5-1.12-2.5-2.5c0-12.7,11.25-23.04,25.07-23.04s25.07,10.33,25.07,23.04c0,1.38-1.12,2.5-2.5,2.5Z"/><path d="M53.04,16.42c-1.38,0-2.5-1.12-2.5-2.5,0-4.92-3.38-8.92-7.53-8.92s-7.53,4-7.53,8.92c0,1.38-1.12,2.5-2.5,2.5s-2.5-1.12-2.5-2.5c0-7.68,5.62-13.92,12.53-13.92s12.53,6.25,12.53,13.92c0,1.38-1.12,2.5-2.5,2.5Z"/><path d="M9.31,82.1h-.95c-4.61,0-8.36-3.75-8.36-8.36v-15.72c0-4.61,3.75-8.36,8.36-8.36h.95c1.38,0,2.5,1.12,2.5,2.5s-1.12,2.5-2.5,2.5h-.95c-1.85,0-3.36,1.51-3.36,3.36v15.72c0,1.85,1.51,3.36,3.36,3.36h.95c1.38,0,2.5,1.12,2.5,2.5s-1.12,2.5-2.5,2.5Z"/><path d="M77.99,82.1h-.95c-1.38,0-2.5-1.12-2.5-2.5s1.12-2.5,2.5-2.5h.95c1.85,0,3.36-1.51,3.36-3.36v-15.72c0-1.85-1.51-3.36-3.36-3.36h-.95c-1.38,0-2.5-1.12-2.5-2.5s1.12-2.5,2.5-2.5h.95c4.61,0,8.36,3.75,8.36,8.36v15.72c0,4.61-3.75,8.36-8.36,8.36Z"/><path d="M57.21,90.76H29.15c-7.21,0-13.08-5.87-13.08-13.08v-8.29c0-7.21,5.87-13.08,13.08-13.08h28.06c7.21,0,13.08,5.87,13.08,13.08v8.29c0,7.21-5.87,13.08-13.08,13.08Zm-28.06-29.45c-4.46,0-8.08,3.62-8.08,8.08v8.29c0,4.46,3.62,8.08,8.08,8.08h28.06c4.46,0,8.08-3.62,8.08-8.08v-8.29c0-4.46-3.62-8.08-8.08-8.08H29.15Z"/><g><g><circle cx="43.01" cy="65.88" r="12.48" style="fill:#fff;"/><path d="M43.01,80.86c-8.26,0-14.98-6.72-14.98-14.98s6.72-14.97,14.98-14.97,14.97,6.72,14.97,14.97-6.72,14.98-14.97,14.98Zm0-24.95c-5.5,0-9.98,4.47-9.98,9.97s4.47,9.98,9.98,9.98,9.97-4.47,9.97-9.98-4.47-9.97-9.97-9.97Z"/></g><rect x="30.54" y="63.38" width="24.95" height="5"/><g><circle cx="43.01" cy="65.88" r="3.94"/><path d="M43.01,72.32c-3.55,0-6.44-2.89-6.44-6.44s2.89-6.44,6.44-6.44,6.44,2.89,6.44,6.44-2.89,6.44-6.44,6.44Zm0-7.88c-.79,0-1.44,.65-1.44,1.44s.65,1.44,1.44,1.44,1.44-.65,1.44-1.44-.65-1.44-1.44-1.44Z"/></g></g></g></g></g></svg>