<?xml version="1.0" encoding="utf-8"?>
<!-- Generator: Adobe Illustrator 26.3.1, SVG Export Plug-In . SVG Version: 6.00 Build 0)  -->
<svg version="1.1" id="Capa_1" xmlns="http://www.w3.org/2000/svg" xmlns:xlink="http://www.w3.org/1999/xlink" x="0px" y="0px"
	 viewBox="0 0 86.3 92.6" style="enable-background:new 0 0 86.3 92.6;" xml:space="preserve">
<g id="a">
</g>
<path d="M60.5,92.6H25.5c-10.3,0-18.7-8.4-18.7-18.7V44C6.9,24.1,23.1,7.9,43,7.9S79.1,24.1,79.1,44v30
	C79.1,84.2,70.8,92.6,60.5,92.6z M43,12.9c-17.2,0-31.1,14-31.1,31.1v30c0,7.5,6.1,13.7,13.7,13.7h34.9c7.5,0,13.7-6.1,13.7-13.7V44
	C74.1,26.8,60.2,12.9,43,12.9z"/>
<path d="M65.6,43.9c-1.4,0-2.5-1.1-2.5-2.5c0-10-9-18-20.1-18s-20.1,8.1-20.1,18c0,1.4-1.1,2.5-2.5,2.5s-2.5-1.1-2.5-2.5
	c0-12.7,11.2-23,25.1-23s25.1,10.3,25.1,23C68.1,42.8,67,43.9,65.6,43.9z"/>
<path d="M53,16.4c-1.4,0-2.5-1.1-2.5-2.5C50.5,9,47.2,5,43,5s-7.5,4-7.5,8.9c0,1.4-1.1,2.5-2.5,2.5s-2.5-1.1-2.5-2.5
	C30.5,6.2,36.1,0,43,0s12.5,6.2,12.5,13.9C55.5,15.3,54.4,16.4,53,16.4z"/>
<path d="M9.3,82.1H8.4c-4.6,0-8.4-3.8-8.4-8.4V58c0-4.6,3.8-8.4,8.4-8.4h0.9c1.4,0,2.5,1.1,2.5,2.5s-1.1,2.5-2.5,2.5H8.4
	C6.5,54.7,5,56.2,5,58v15.7c0,1.8,1.5,3.4,3.4,3.4h0.9c1.4,0,2.5,1.1,2.5,2.5S10.7,82.1,9.3,82.1z"/>
<path d="M78,82.1H77c-1.4,0-2.5-1.1-2.5-2.5s1.1-2.5,2.5-2.5H78c1.8,0,3.4-1.5,3.4-3.4V58c0-1.8-1.5-3.4-3.4-3.4H77
	c-1.4,0-2.5-1.1-2.5-2.5s1.1-2.5,2.5-2.5H78c4.6,0,8.4,3.8,8.4,8.4v15.7C86.3,78.3,82.6,82.1,78,82.1z"/>
<path d="M57.2,90.8H29.1c-7.2,0-13.1-5.9-13.1-13.1v-8.3c0-7.2,5.9-13.1,13.1-13.1h28.1c7.2,0,13.1,5.9,13.1,13.1v8.3
	C70.3,84.9,64.4,90.8,57.2,90.8z M29.1,61.3c-4.5,0-8.1,3.6-8.1,8.1v8.3c0,4.5,3.6,8.1,8.1,8.1h28.1c4.5,0,8.1-3.6,8.1-8.1v-8.3
	c0-4.5-3.6-8.1-8.1-8.1C57.2,61.3,29.1,61.3,29.1,61.3z"/>
</svg>
