<?xml version="1.0" encoding="UTF-8"?><svg id="b" xmlns="http://www.w3.org/2000/svg" viewBox="0 0 452.2 466.48"><g id="c"><g id="d"><path d="M452.2,222.81v3.99c-4.67,8.35-9.16,16.81-14.09,25-3.25,5.39-5.32,5.51-11.1,2.66-8.46-4.17-16.9-8.45-25.62-12.01-4.09-1.67-5.4-3.64-5.16-7.97,.74-13.32-4.12-24.63-13.47-34.03-1.54-1.55-3.53-2.65-5.31-3.96-.48,.33-.95,.67-1.43,1,1.05,2.61,1.86,5.35,3.18,7.82,7.17,13.45,9.39,27.48,4.99,42.23-2.31,7.75-5.12,15.35-7.53,23.07-.79,2.54-1.05,5.26-1.56,7.89l1.3,.72c1.27-1.08,2.95-1.92,3.74-3.28,4.08-6.99,8.32-13.94,11.72-21.26,2.01-4.32,4.03-5.75,8.19-3.23,8.49,5.15,17.08,10.15,25.38,15.6,1.81,1.19,3.55,3.91,3.67,6.02,.83,15.17-2.31,29.64-9.06,43.23-3.08,6.21-10.96,7.17-15.92,2.28-2.84-2.8-5.42-5.92-8.52-8.38-4.42-3.5-8.67-7.71-16.14-7.64,1.32,2.11,2.01,3.54,3,4.71,2.36,2.79,4.61,5.75,7.35,8.12,8.99,7.8,9.46,17.73,7.35,28.27-1.01,5.04-4.16,8.88-9,10.54-9.99,3.42-20.38,4.14-30.85,3.22-1.28-.11-2.88-1.12-3.6-2.19-6.78-10.23-13.38-20.58-20.09-30.85-.77-1.17-1.85-2.14-2.79-3.2-1.04,2.8-1.58,5.2-.94,7.24,1.9,6.12,3.65,12.42,6.57,18.08,5.66,10.97,10.74,21.95,11.56,34.54,.74,11.3,.87,22.53-2.24,33.52-1.43,5.05-3.97,6.69-8.82,4.98-11.66-4.1-23.34-8.26-34.67-13.19-4.92-2.14-8.39-2.07-11.94,1.75-10.16,10.95-20.17,22.05-30.6,32.75-7.39,7.58-14.97,15.07-23.16,21.74-6.77,5.51-14.66,4.93-21.6-.28-5.29-3.97-10.4-8.31-14.97-13.07-13.1-13.66-25.94-27.59-38.78-41.49-3.4-3.69-6.6-3.41-11.06-1.53-11.54,4.86-23.32,9.17-35.15,13.29-4.7,1.64-7.94-.3-8.83-5.06-3.83-20.53-4.39-40.82,5.58-60.12,2.89-5.6,5.76-11.23,8.1-17.07,1.99-4.97,3.5-10.23,1.76-16.38-1.2,1.04-2.08,1.52-2.56,2.26-6.66,10.3-13.18,20.69-19.97,30.9-1.04,1.57-3.26,3.35-4.92,3.34-7.59-.04-15.23-.23-22.73-1.24-6.82-.92-13.96-3.02-15.92-10.72-2.54-9.98-3.42-20.08,5.26-28.26,3.01-2.84,5.65-6.08,8.35-9.24,1.2-1.4,2.12-3.04,3.16-4.57l-.82-1.14c-1.97,.57-4.31,.64-5.84,1.79-5.67,4.27-11.5,8.48-16.48,13.5-5.96,6.01-14.37,5.29-17.82-2.35-5.82-12.84-8.95-26.31-8.28-40.43,.12-2.6,1.62-6.09,3.64-7.47,8.32-5.68,17.06-10.73,25.69-15.95,3.96-2.39,5.91-.92,7.81,3.19,3.39,7.33,7.55,14.32,11.61,21.31,.86,1.47,2.71,2.37,4.11,3.53,.38-.25,.77-.5,1.15-.76-.27-1.7-.34-3.47-.85-5.1-1.84-5.84-3.87-11.62-5.75-17.45-3.06-9.48-6.17-19.18-4.24-29.15,1.49-7.67,4.77-15,7.29-22.46,.79-2.34,1.72-4.63,2.58-6.94l-1.5-1.02c-1.85,1.44-3.89,2.69-5.53,4.34-9.38,9.44-13.89,20.78-13.07,34.17,.15,2.39,.65,4.84-2.52,6.27-10.1,4.57-20.08,9.41-30.1,14.16-3.28,1.56-6.29,1.21-8.24-1.9-4.67-7.45-9.38-14.9-13.54-22.63-3.21-5.96-1.3-11.61,2.93-16.48,1.52-1.75,3.34-3.23,5.06-4.8,16.66-15.12,31.82-31.57,44.56-50.18,12.3-17.97,13.19-36.42,3.12-55.74-10.97-21.04-21.49-42.31-32.34-63.42-2.87-5.58-2.63-10.76,.63-16.01,5.35-8.61,12.31-15.67,20.71-21.25,6.28-4.18,11.97-3.69,17.77,1.16,6.37,5.33,12.6,10.83,19.09,16.01,21.97,17.51,44.79,33.58,73.08,41.74-9.06,4.22-18.64,5.92-25.54,13.27,31.53-5.83,62.85-12.01,95-12.09,32.36-.08,63.84,6.29,95.64,11.93-6.89-7.06-16.41-8.85-24.45-12.8,7.88-3.26,15.69-6.04,23.1-9.65,25.18-12.25,46.58-29.9,67.62-48.02,6.16-5.3,12.28-6.3,18.42-1.15,7.06,5.91,13.46,12.7,19.54,19.64,4.85,5.53,4.61,11.81,1.12,18.48-11.07,21.16-21.87,42.47-32.61,63.8-8.7,17.3-8.4,34.37,2,50.98,12.64,20.18,29.18,36.94,46.22,53.33,3.91,3.76,6.64,8.76,9.91,13.19ZM111.71,172.15c-11.07,8.72-19.16,19.56-25.53,31.72-6.33,12.06-11.76,25.09-8.7,38.52,4.88,21.44,9.65,43.57,29.14,57.83-8.5,3.23-15.05-2.41-22.63-4.84,.56,2.27,1.34,4.2,2.63,5.68,7.41,8.48,18.73,10.58,30.4,5.51,17.88-7.78,32.66-19.67,44.53-35.02,7.23-9.34,9.36-19.81,5.19-31.33-6.35-17.53-14.12-34.43-24.65-49.76-6.03-8.78-13.25-17.07-21.21-24.14-12.62-11.2-34.01-2.5-36.89,14.34-.07,.39,.31,.85,.69,1.82,1.66-1.09,3.13-2.03,4.58-3,4.39-2.93,8.64-6.11,13.22-8.7,2.96-1.67,6.28-1.67,9.23,1.36Zm234.1,128.36c19.85-17.27,28.42-40.61,28.84-65.19,.44-25.92-15.04-46.21-33.93-64.05,3.04-.58,6.43-1.48,8.97-.38,4.18,1.8,7.81,4.87,11.65,7.43,2.05,1.37,4.05,2.82,6.72,4.69-.42-6.68-5.02-13.28-11.81-18.14-7.75-5.56-15.91-5.73-23.36,.11-4.68,3.67-9.35,7.58-13.15,12.12-15.62,18.69-25.86,40.4-34.25,63.06-4.85,13.1-1.3,24.41,7.52,34.44,4.16,4.73,8.46,9.43,13.22,13.54,9.84,8.47,20.54,15.65,33.01,19.91,10.54,3.6,22.63-1.3,27.18-8.03,.95-1.41,1.37-3.18,2.03-4.78-7.92,3.18-14.66,7.86-22.65,5.28Zm-193.88,71.58c-.53,.35-1.07,.7-1.6,1.05,.95,2.33,1.61,4.84,2.91,6.97,7.07,11.61,20.97,17.07,34.51,13.73,11.89-2.93,15.06-7.89,12.71-19.79-.25-1.29-.45-2.59-.69-3.88-2.97-16.5-11.78-29.08-26.34-37.14-7.12-3.94-15.01-4.24-22.02,.95-5.32,3.93-6.94,12.29-3.26,16.54,3.11-4.24,3.81-10.64,11.13-11.99-7.86,22.51,1.06,37.73,20.97,48.18-12.84,1.08-20.78-6.37-28.33-14.61Zm120.1,14.59c19.56-10.55,28.86-25.55,21.48-48.37,2.82,1.69,5.07,3.31,6.69,5.41,1.59,2.07,2.54,4.63,4.08,7.58,3.41-8.54-.04-17.15-7.42-19.6-8.88-2.95-16.99-.85-24.15,4.9-14.2,11.4-21.37,26.13-21.29,44.49,.02,5.45,2.24,8.98,7,10.82,10.96,4.25,21.81,4.09,31.76-2.64,5.76-3.9,10.3-9.08,10.74-17.14-7.91,8.2-16.06,15.64-28.9,14.54Z" style="fill:#fff;"/></g></g></svg>