<?xml version="1.0" encoding="utf-8"?>
<!-- Generator: Adobe Illustrator 26.2.1, SVG Export Plug-In . SVG Version: 6.00 Build 0)  -->
<svg version="1.1" id="Pokéball" xmlns="http://www.w3.org/2000/svg" xmlns:xlink="http://www.w3.org/1999/xlink" x="0px" y="0px"
	 viewBox="0 0 511.5 511.4" style="enable-background:new 0 0 511.5 511.4;" xml:space="preserve">
<style type="text/css">
	.st0{fill:#FFFFFF;}
	.st1{fill:#FF1C1C;}
</style>
<g id="Pokéball_1_">
	<g id="Colours">
		<path id="Down" class="st0" d="M255.7,339.6c-40.4,0-74.1-28.6-82.1-66.6H39.2c9.5,110.5,102.2,197.2,215.1,197.2
			S460,383.5,469.4,273H337.8C329.8,311.1,296.1,339.6,255.7,339.6z"/>
		<path id="Center" class="st0" d="M305.2,255.7L305.2,255.7C305.1,255.7,305.1,255.7,305.2,255.7c-0.1-6.1-1.2-11.9-3.2-17.3
			c-7-18.8-25.1-32.1-46.3-32.1s-39.3,13.4-46.3,32.1c-2,5.4-3.1,11.2-3.1,17.3l0,0h0.1l0,0c0,6.1,1.1,11.9,3.1,17.3
			c7,18.8,25.1,32.1,46.3,32.1s39.3-13.4,46.3-32.1C304.1,267.7,305.2,261.8,305.2,255.7L305.2,255.7z"/>
		<path id="Up" class="st1" d="M255.8,171.9c40.4,0,74.1,28.6,82.1,66.6h134.4C462.8,127.9,370.1,41.2,257.1,41.2
			S51.5,127.9,42,238.4h131.7C181.7,200.4,215.4,171.9,255.8,171.9z"/>
	</g>
	<path id="Line" d="M257.1,41.2c113,0,205.7,86.7,215.1,197.2H337.8c-8-38-41.7-66.6-82.1-66.6s-74.1,28.6-82.1,66.6H42
		C51.5,127.9,144.2,41.2,257.1,41.2z M302,238.4c2,5.4,3.1,11.2,3.1,17.3l0,0h0.1l0,0c0,6.1-1.1,11.9-3.1,17.3
		c-7,18.8-25.1,32.1-46.3,32.1c-21.2,0-39.3-13.4-46.3-32.1c-2-5.4-3.1-11.2-3.1-17.3l0,0h-0.1l0,0c0-6.1,1.1-11.9,3.1-17.3
		c7-18.8,25.1-32.1,46.3-32.1S295,219.7,302,238.4z M254.3,470.3c-113,0-205.7-86.7-215.1-197.2h134.4c8,38,41.7,66.6,82.1,66.6
		s74.1-28.6,82.1-66.6h131.7C460,383.5,367.3,470.3,254.3,470.3z M255.7,0C114.5,0,0,114.5,0,255.7s114.5,255.7,255.7,255.7
		S511.5,397,511.5,255.7S397,0,255.7,0z"/>
</g>
</svg>
