<?xml version="1.0" encoding="utf-8"?>
<!-- Generator: Adobe Illustrator 26.3.1, SVG Export Plug-In . SVG Version: 6.00 Build 0)  -->
<svg version="1.1" id="Capa_1" xmlns="http://www.w3.org/2000/svg" xmlns:xlink="http://www.w3.org/1999/xlink" x="0px" y="0px"
	 viewBox="0 0 34.8 10.7" style="enable-background:new 0 0 34.8 10.7;" xml:space="preserve">
<style type="text/css">
	.st0{opacity:0.1;}
	.st1{fill:#FFFFFF;}
</style>
<g id="a_00000174582858520278402690000016414387686335380896_" class="st0">
</g>
<g>
	<path class="st1" d="M4.2,5.1l1.2-3.5h1.7L5,6.5v2.8H3.4V6.5l-2.1-5h1.7L4.2,5.1z"/>
	<path class="st1" d="M5.3,9.6H3.2v-3L1,1.3h2.3l1,3l1-3h2.3L5.3,6.6V9.6z M3.7,9.1h1.1l0-2.7l1.9-4.6H5.6l-1.4,4l-1.4-4H1.7l2,4.7
		V9.1z"/>
</g>
<g>
	<path class="st1" d="M7,6.3c0-0.9,0.2-1.6,0.6-2.1s1-0.8,1.7-0.8c0.7,0,1.3,0.3,1.7,0.8s0.6,1.2,0.6,2.1v0.4c0,0.9-0.2,1.6-0.6,2.1
		c-0.4,0.5-1,0.7-1.7,0.7C8.6,9.5,8,9.2,7.6,8.7C7.2,8.2,7,7.5,7,6.7V6.3z M8.5,6.7c0,1,0.3,1.6,0.8,1.6c0.5,0,0.8-0.4,0.8-1.3
		l0-0.6c0-0.5-0.1-0.9-0.2-1.2S9.6,4.7,9.3,4.7c-0.3,0-0.5,0.1-0.6,0.4C8.6,5.4,8.5,5.7,8.5,6.3V6.7z"/>
	<path class="st1" d="M9.3,9.7c-0.8,0-1.5-0.3-1.9-0.8C6.9,8.3,6.7,7.6,6.7,6.7V6.3c0-0.9,0.2-1.7,0.7-2.2c0.5-0.6,1.1-0.8,1.9-0.8
		c0.8,0,1.5,0.3,1.9,0.8c0.5,0.5,0.7,1.3,0.7,2.2v0.4c0,0.9-0.2,1.7-0.7,2.2C10.8,9.4,10.1,9.7,9.3,9.7z M9.3,3.7
		c-0.7,0-1.2,0.2-1.5,0.7C7.4,4.8,7.2,5.5,7.2,6.3v0.4c0,0.8,0.2,1.5,0.6,1.9C8.1,9,8.7,9.2,9.3,9.2c0.7,0,1.2-0.2,1.5-0.7
		c0.4-0.5,0.6-1.1,0.6-1.9V6.3c0-0.8-0.2-1.5-0.6-1.9C10.5,3.9,10,3.7,9.3,3.7z M9.3,8.5c-0.5,0-1.1-0.3-1.1-1.8V6.3
		c0-0.6,0.1-1,0.3-1.3c0.2-0.4,0.6-0.5,0.8-0.5c0.4,0,0.6,0.2,0.8,0.5c0.2,0.3,0.3,0.7,0.3,1.3l0,0.6C10.3,8.2,9.8,8.5,9.3,8.5z
		 M9.3,5C9.2,5,9.1,5,8.9,5.2C8.8,5.4,8.7,5.8,8.7,6.3v0.4C8.7,7.5,8.9,8,9.3,8c0.1,0,0.5,0,0.6-1.1l0-0.6c0-0.5-0.1-0.8-0.2-1.1
		C9.6,5,9.5,5,9.3,5z"/>
</g>
<g>
	<path class="st1" d="M15.2,8.8c-0.3,0.4-0.7,0.6-1.3,0.6c-0.5,0-0.9-0.2-1.2-0.6c-0.3-0.4-0.4-0.9-0.4-1.6V3.6h1.5v3.8
		c0,0.6,0.2,0.8,0.6,0.8c0.3,0,0.6-0.2,0.8-0.5V3.6h1.5v5.8h-1.4L15.2,8.8z"/>
	<path class="st1" d="M13.9,9.7c-0.6,0-1.1-0.2-1.4-0.7c-0.3-0.4-0.5-1-0.5-1.8v-4h2v4.1C14.1,8,14.3,8,14.4,8
		c0.2,0,0.4-0.1,0.5-0.3V3.3h2v6.3H15l0-0.2C14.7,9.6,14.3,9.7,13.9,9.7z M12.6,3.8v3.5c0,0.6,0.1,1.1,0.4,1.5
		c0.2,0.3,0.6,0.5,1,0.5c0.5,0,0.8-0.2,1.1-0.5l0.4-0.5l0.1,1h0.9V3.8h-1l0,4.1c-0.2,0.4-0.5,0.6-1,0.6c-0.3,0-0.8-0.1-0.8-1.1V3.8
		H12.6z"/>
</g>
<g>
	<path class="st1" d="M23.9,6.5l0.7-4.9h1.6l-1.4,7.8h-1.6l-0.9-4.6l-0.9,4.6h-1.6l-1.4-7.8H20l0.7,4.9l0.9-4.9H23L23.9,6.5z"/>
	<path class="st1" d="M25,9.6h-2l-0.7-3.6l-0.7,3.6h-2l-1.5-8.3h2.1L20.8,5l0.7-3.7h1.7L23.9,5l0.6-3.7h2.1L25,9.6z M23.4,9.1h1.2
		l1.3-7.3h-1L23.9,8l-1.2-6.2h-0.9L20.7,8l-0.9-6.2h-1.1L20,9.1h1.2l1.1-5.7L23.4,9.1z"/>
</g>
<g>
	<path class="st1" d="M26.7,2.1c0-0.2,0.1-0.4,0.2-0.6s0.4-0.2,0.6-0.2c0.2,0,0.5,0.1,0.6,0.2s0.2,0.3,0.2,0.6
		c0,0.2-0.1,0.4-0.2,0.6s-0.3,0.2-0.6,0.2c-0.3,0-0.5-0.1-0.6-0.2S26.7,2.3,26.7,2.1z M28.3,9.4h-1.5V3.6h1.5V9.4z"/>
	<path class="st1" d="M28.6,9.6h-2V3.3h2V9.6z M27,9.1h1V3.8h-1V9.1z M27.5,3.1c-0.3,0-0.6-0.1-0.8-0.3c-0.2-0.2-0.3-0.5-0.3-0.8
		c0-0.3,0.1-0.6,0.3-0.8c0.4-0.4,1.2-0.4,1.6,0c0.2,0.2,0.3,0.5,0.3,0.8c0,0.3-0.1,0.6-0.3,0.8C28.1,3,27.9,3.1,27.5,3.1z M27.5,1.5
		c-0.2,0-0.3,0-0.4,0.2C27,1.8,27,1.9,27,2.1c0,0.2,0.1,0.3,0.2,0.4c0.2,0.2,0.6,0.2,0.8,0c0.1-0.1,0.2-0.2,0.2-0.4
		c0-0.2,0-0.3-0.2-0.4C27.9,1.6,27.7,1.5,27.5,1.5z"/>
</g>
<g>
	<path class="st1" d="M30.6,3.6l0,0.6C31,3.7,31.4,3.5,32,3.5c1,0,1.5,0.7,1.5,2.1v3.8H32V5.7c0-0.3,0-0.6-0.1-0.7s-0.3-0.2-0.5-0.2
		c-0.3,0-0.5,0.1-0.6,0.4v4.2h-1.5V3.6H30.6z"/>
	<path class="st1" d="M33.8,9.6h-2v-4c0-0.4-0.1-0.5-0.1-0.6c0,0-0.1-0.1-0.3-0.1c-0.1,0-0.3,0-0.4,0.2v4.4h-2V3.3h1.9l0,0.3
		c0.3-0.2,0.7-0.4,1.1-0.4c0.8,0,1.8,0.4,1.8,2.3V9.6z M32.3,9.1h1V5.6c0-1.7-0.8-1.9-1.3-1.9c-0.5,0-0.9,0.2-1.1,0.6l-0.4,0.5
		l-0.1-1h-0.9v5.3h1l0-4.1c0.2-0.5,0.6-0.6,0.9-0.6c0.4,0,0.6,0.2,0.7,0.3c0.1,0.2,0.2,0.5,0.2,0.9V9.1z"/>
</g>
</svg>
